<svg width="16" height="16" viewBox="0 0 16 16" fill="none" xmlns="http://www.w3.org/2000/svg">
<path fill-rule="evenodd" clip-rule="evenodd" d="M0.366227 1.36625C0.600637 1.13191 0.918522 1.00027 1.24998 1.00027C1.58143 1.00027 1.89932 1.13191 2.13373 1.36625L7.49998 6.7325L12.8662 1.36625C12.9815 1.24686 13.1195 1.15163 13.272 1.08612C13.4245 1.02061 13.5885 0.98613 13.7545 0.984687C13.9205 0.983245 14.085 1.01487 14.2387 1.07772C14.3923 1.14057 14.5319 1.23339 14.6492 1.35076C14.7666 1.46812 14.8594 1.60769 14.9223 1.76131C14.9851 1.91493 15.0167 2.07953 15.0153 2.2455C15.0138 2.41148 14.9794 2.5755 14.9139 2.72801C14.8483 2.88051 14.7531 3.01844 14.6337 3.13375L9.26748 8.5L14.6337 13.8663C14.8614 14.102 14.9874 14.4178 14.9846 14.7455C14.9817 15.0732 14.8503 15.3868 14.6185 15.6185C14.3867 15.8503 14.0732 15.9817 13.7455 15.9846C13.4177 15.9874 13.102 15.8614 12.8662 15.6337L7.49998 10.2675L2.13373 15.6337C1.89797 15.8614 1.58222 15.9874 1.25448 15.9846C0.92673 15.9817 0.613214 15.8503 0.381454 15.6185C0.149694 15.3868 0.0182323 15.0732 0.0153843 14.7455C0.0125363 14.4178 0.13853 14.102 0.366227 13.8663L5.73248 8.5L0.366227 3.13375C0.131889 2.89934 0.000244141 2.58146 0.000244141 2.25C0.000244141 1.91855 0.131889 1.60066 0.366227 1.36625V1.36625Z" fill="#6B7280"/>
</svg>
