<svg width="21" height="21" viewBox="0 0 21 21" fill="none" xmlns="http://www.w3.org/2000/svg">
<path d="M8.933 7.918C9.088 7.815 9.279 7.722 9.5 7.651V9.349C9.29973 9.28623 9.10896 9.1964 8.933 9.082C8.57 8.84 8.5 8.614 8.5 8.5C8.5 8.386 8.57 8.16 8.933 7.918ZM11.5 13.349V11.651C11.72 11.722 11.912 11.815 12.067 11.918C12.431 12.161 12.5 12.386 12.5 12.5C12.5 12.614 12.43 12.84 12.067 13.082C11.891 13.1964 11.7003 13.2862 11.5 13.349Z" fill="#9CA3AF"/>
<path fill-rule="evenodd" clip-rule="evenodd" d="M10.5 18.5C12.6217 18.5 14.6566 17.6571 16.1569 16.1569C17.6571 14.6566 18.5 12.6217 18.5 10.5C18.5 8.37827 17.6571 6.34344 16.1569 4.84315C14.6566 3.34285 12.6217 2.5 10.5 2.5C8.37827 2.5 6.34344 3.34285 4.84315 4.84315C3.34285 6.34344 2.5 8.37827 2.5 10.5C2.5 12.6217 3.34285 14.6566 4.84315 16.1569C6.34344 17.6571 8.37827 18.5 10.5 18.5V18.5ZM11.5 5.5C11.5 5.23478 11.3946 4.98043 11.2071 4.79289C11.0196 4.60536 10.7652 4.5 10.5 4.5C10.2348 4.5 9.98043 4.60536 9.79289 4.79289C9.60536 4.98043 9.5 5.23478 9.5 5.5V5.592C8.90268 5.69833 8.33276 5.92344 7.824 6.254C7.102 6.734 6.5 7.509 6.5 8.5C6.5 9.49 7.102 10.265 7.824 10.746C8.304 11.066 8.878 11.291 9.5 11.408V13.349C9.109 13.222 8.82 13.032 8.657 12.845C8.5724 12.7412 8.46782 12.6554 8.34945 12.5928C8.23107 12.5302 8.10133 12.492 7.96791 12.4804C7.83449 12.4689 7.70012 12.4843 7.57276 12.5257C7.4454 12.5671 7.32765 12.6336 7.22649 12.7214C7.12534 12.8091 7.04284 12.9163 6.98389 13.0365C6.92494 13.1568 6.89075 13.2876 6.88334 13.4214C6.87592 13.5551 6.89544 13.6889 6.94073 13.8149C6.98602 13.941 7.05617 14.0566 7.147 14.155C7.709 14.804 8.56 15.231 9.5 15.408V15.5C9.5 15.7652 9.60536 16.0196 9.79289 16.2071C9.98043 16.3946 10.2348 16.5 10.5 16.5C10.7652 16.5 11.0196 16.3946 11.2071 16.2071C11.3946 16.0196 11.5 15.7652 11.5 15.5V15.408C12.0973 15.3017 12.6672 15.0766 13.176 14.746C13.898 14.266 14.5 13.491 14.5 12.5C14.5 11.51 13.898 10.735 13.176 10.254C12.6672 9.92344 12.0973 9.69833 11.5 9.592V7.651C11.891 7.778 12.18 7.968 12.343 8.155C12.4284 8.25631 12.5331 8.33965 12.6509 8.40016C12.7688 8.46067 12.8975 8.49716 13.0296 8.50749C13.1617 8.51783 13.2945 8.50182 13.4204 8.46038C13.5462 8.41894 13.6626 8.35291 13.7627 8.26612C13.8628 8.17932 13.9447 8.0735 14.0035 7.9548C14.0624 7.83609 14.0971 7.70688 14.1056 7.57465C14.1141 7.44243 14.0962 7.30984 14.053 7.18458C14.0098 7.05932 13.9422 6.94389 13.854 6.845C13.291 6.196 12.441 5.769 11.5 5.592V5.5Z" fill="#9CA3AF"/>
</svg>
