<svg width="21" height="20" viewBox="0 0 21 20" fill="none" xmlns="http://www.w3.org/2000/svg">
<g clip-path="url(#clip0_28_4037)">
<path fill-rule="evenodd" clip-rule="evenodd" d="M10.5002 0.416664C8.12627 0.417896 5.83013 1.25871 4.02241 2.78877C2.21469 4.31882 1.01327 6.43834 0.632974 8.76833C0.252675 11.0983 0.718293 13.4868 1.94658 15.5068C3.17487 17.5268 5.08572 19.0465 7.33746 19.7941C7.83423 19.8863 8.02135 19.5785 8.02135 19.3167C8.02135 19.0549 8.01141 18.2958 8.0081 17.466C5.22618 18.067 4.63834 16.2921 4.63834 16.2921C4.18462 15.1395 3.52888 14.8366 3.52888 14.8366C2.62145 14.2208 3.59678 14.2323 3.59678 14.2323C4.60192 14.3031 5.13015 15.2581 5.13015 15.2581C6.02103 16.7778 7.46993 16.3382 8.03956 16.0813C8.12898 15.4375 8.38896 14.9996 8.67543 14.751C6.45321 14.5007 4.11839 13.6478 4.11839 9.83785C4.10461 8.84976 4.47337 7.89421 5.14836 7.1689C5.0457 6.91863 4.70292 5.90769 5.24606 4.53452C5.24606 4.53452 6.08561 4.26779 7.99652 5.5537C9.63558 5.10802 11.3649 5.10802 13.004 5.5537C14.9132 4.26779 15.7511 4.53452 15.7511 4.53452C16.2959 5.9044 15.9531 6.91534 15.8505 7.1689C16.5276 7.89432 16.8971 8.85154 16.8821 9.84114C16.8821 13.6593 14.5423 14.5007 12.3168 14.746C12.6744 15.0556 12.994 15.6598 12.994 16.5884C12.994 17.9188 12.9824 18.989 12.9824 19.3167C12.9824 19.5817 13.1629 19.8913 13.6696 19.7941C15.9216 19.0464 17.8327 17.5264 19.061 15.5061C20.2892 13.4858 20.7546 11.0969 20.3739 8.76671C19.9931 6.4365 18.7911 4.31696 16.9828 2.78717C15.1745 1.25738 12.8778 0.417115 10.5035 0.416664H10.5002Z" fill="#D9D9D9"/>
<path d="M4.28705 14.6933C4.26552 14.7427 4.18604 14.7576 4.12146 14.723C4.05688 14.6884 4.00886 14.6242 4.03205 14.5731C4.05523 14.5221 4.13306 14.5089 4.19764 14.5435C4.26222 14.5781 4.31189 14.6439 4.28705 14.6933Z" fill="white"/>
<path d="M4.69273 15.1428C4.65844 15.16 4.61921 15.1648 4.58175 15.1564C4.54429 15.148 4.51094 15.1269 4.4874 15.0967C4.42282 15.0276 4.40957 14.9321 4.45924 14.8893C4.50892 14.8465 4.59835 14.8662 4.66293 14.9354C4.72751 15.0045 4.74241 15.1 4.69273 15.1428Z" fill="white"/>
<path d="M5.08685 15.7142C5.02558 15.757 4.92125 15.7142 4.8633 15.6285C4.84727 15.6132 4.83453 15.5948 4.82582 15.5744C4.81711 15.554 4.81262 15.5321 4.81262 15.51C4.81262 15.4879 4.81711 15.466 4.82582 15.4456C4.83453 15.4252 4.84727 15.4068 4.8633 15.3914C4.92457 15.3503 5.02889 15.3914 5.08685 15.4754C5.14481 15.5594 5.14646 15.6713 5.08685 15.7142V15.7142Z" fill="white"/>
<path d="M5.62168 16.2674C5.56704 16.3283 5.45609 16.3118 5.36502 16.2295C5.27394 16.1472 5.25241 16.0352 5.30706 15.9759C5.3617 15.9167 5.47265 15.9331 5.56703 16.0138C5.66142 16.0945 5.67964 16.2081 5.62168 16.2674V16.2674Z" fill="white"/>
<path d="M6.37179 16.5901C6.34695 16.6675 6.23435 16.702 6.12175 16.6691C6.00915 16.6362 5.93463 16.544 5.95616 16.4649C5.97769 16.3859 6.09194 16.3497 6.2062 16.3859C6.32046 16.4221 6.39332 16.5094 6.37179 16.5901Z" fill="white"/>
<path d="M7.18986 16.6461C7.18986 16.7267 7.09713 16.7959 6.97791 16.7975C6.85868 16.7992 6.76099 16.7333 6.76099 16.6526C6.76099 16.572 6.85371 16.5028 6.97294 16.5012C7.09216 16.4995 7.18986 16.5637 7.18986 16.6461Z" fill="white"/>
<path d="M7.9516 16.5193C7.9665 16.6 7.88371 16.6839 7.76448 16.7037C7.64526 16.7234 7.54094 16.6757 7.52603 16.5967C7.51113 16.5176 7.59724 16.432 7.71315 16.4106C7.82906 16.3892 7.9367 16.4386 7.9516 16.5193Z" fill="white"/>
</g>
<defs>
<clipPath id="clip0_28_4037">
<rect width="20" height="20" fill="white" transform="translate(0.5)"/>
</clipPath>
</defs>
</svg>
