<svg width="21" height="20" viewBox="0 0 21 20" fill="none" xmlns="http://www.w3.org/2000/svg">
<g clip-path="url(#clip0_28_4027)">
<path fill-rule="evenodd" clip-rule="evenodd" d="M14.5361 5.45654C13.5036 4.47179 12.1257 3.93532 10.7 3.95736C8.09116 3.95736 5.87548 5.71741 5.08546 8.08741C4.66658 9.32937 4.66657 10.6743 5.08546 11.9162H5.08913C5.88281 14.2826 8.09482 16.0426 10.7037 16.0426C12.0504 16.0426 13.2065 15.6982 14.1026 15.0898V15.0873C15.1571 14.3891 15.8773 13.2905 16.1015 12.0485H10.7V8.19771H20.1323C20.2499 8.86646 20.305 9.5499 20.305 10.2297C20.305 13.2712 19.218 15.8427 17.3267 17.5844L17.3287 17.5859C15.6715 19.1145 13.397 20 10.7 20C6.919 20 3.46135 17.8688 1.76375 14.492C0.345428 11.6664 0.345432 8.33732 1.76376 5.51168C3.46136 2.13119 6.919 -1.27572e-05 10.7 -1.27572e-05C13.1839 -0.0294083 15.5833 0.903901 17.3912 2.60149L14.5361 5.45654Z" fill="#D9D9D9"/>
</g>
<defs>
<clipPath id="clip0_28_4027">
<rect width="20" height="20" fill="white" transform="translate(0.5)"/>
</clipPath>
</defs>
</svg>
