<svg width="21" height="21" viewBox="0 0 21 21" fill="none" xmlns="http://www.w3.org/2000/svg">
<path fill-rule="evenodd" clip-rule="evenodd" d="M10.5 2.5C10.2348 2.5 9.98043 2.60536 9.79289 2.79289C9.60536 2.98043 9.5 3.23478 9.5 3.5V4.5C9.5 4.76522 9.60536 5.01957 9.79289 5.20711C9.98043 5.39464 10.2348 5.5 10.5 5.5C10.7652 5.5 11.0196 5.39464 11.2071 5.20711C11.3946 5.01957 11.5 4.76522 11.5 4.5V3.5C11.5 3.23478 11.3946 2.98043 11.2071 2.79289C11.0196 2.60536 10.7652 2.5 10.5 2.5V2.5ZM4.5 4.5H7.5C7.5 5.29565 7.81607 6.05871 8.37868 6.62132C8.94129 7.18393 9.70435 7.5 10.5 7.5C11.2956 7.5 12.0587 7.18393 12.6213 6.62132C13.1839 6.05871 13.5 5.29565 13.5 4.5H16.5C17.0304 4.5 17.5391 4.71071 17.9142 5.08579C18.2893 5.46086 18.5 5.96957 18.5 6.5V15.5C18.5 16.0304 18.2893 16.5391 17.9142 16.9142C17.5391 17.2893 17.0304 17.5 16.5 17.5H4.5C3.96957 17.5 3.46086 17.2893 3.08579 16.9142C2.71071 16.5391 2.5 16.0304 2.5 15.5V6.5C2.5 5.96957 2.71071 5.46086 3.08579 5.08579C3.46086 4.71071 3.96957 4.5 4.5 4.5V4.5ZM7 11.5C7.39782 11.5 7.77936 11.342 8.06066 11.0607C8.34196 10.7794 8.5 10.3978 8.5 10C8.5 9.60218 8.34196 9.22064 8.06066 8.93934C7.77936 8.65804 7.39782 8.5 7 8.5C6.60218 8.5 6.22064 8.65804 5.93934 8.93934C5.65804 9.22064 5.5 9.60218 5.5 10C5.5 10.3978 5.65804 10.7794 5.93934 11.0607C6.22064 11.342 6.60218 11.5 7 11.5V11.5ZM9.45 15.5C9.52373 15.1369 9.51583 14.762 9.42688 14.4023C9.33793 14.0426 9.17015 13.7072 8.93568 13.4204C8.70121 13.1335 8.40591 12.9023 8.07114 12.7436C7.73637 12.5849 7.3705 12.5025 7 12.5025C6.6295 12.5025 6.26363 12.5849 5.92886 12.7436C5.59409 12.9023 5.29879 13.1335 5.06432 13.4204C4.82985 13.7072 4.66207 14.0426 4.57312 14.4023C4.48417 14.762 4.47627 15.1369 4.55 15.5H9.45ZM12.5 9.5C12.2348 9.5 11.9804 9.60536 11.7929 9.79289C11.6054 9.98043 11.5 10.2348 11.5 10.5C11.5 10.7652 11.6054 11.0196 11.7929 11.2071C11.9804 11.3946 12.2348 11.5 12.5 11.5H15.5C15.7652 11.5 16.0196 11.3946 16.2071 11.2071C16.3946 11.0196 16.5 10.7652 16.5 10.5C16.5 10.2348 16.3946 9.98043 16.2071 9.79289C16.0196 9.60536 15.7652 9.5 15.5 9.5H12.5ZM11.5 13.5C11.5 13.2348 11.6054 12.9804 11.7929 12.7929C11.9804 12.6054 12.2348 12.5 12.5 12.5H14.5C14.7652 12.5 15.0196 12.6054 15.2071 12.7929C15.3946 12.9804 15.5 13.2348 15.5 13.5C15.5 13.7652 15.3946 14.0196 15.2071 14.2071C15.0196 14.3946 14.7652 14.5 14.5 14.5H12.5C12.2348 14.5 11.9804 14.3946 11.7929 14.2071C11.6054 14.0196 11.5 13.7652 11.5 13.5Z" fill="#9CA3AF"/>
</svg>
