<svg width="21" height="21" viewBox="0 0 21 21" fill="none" xmlns="http://www.w3.org/2000/svg">
<path fill-rule="evenodd" clip-rule="evenodd" d="M5.55002 4.54999C6.86284 3.23717 8.64341 2.49963 10.5 2.49963C12.3566 2.49963 14.1372 3.23717 15.45 4.54999C16.7628 5.86281 17.5004 7.64338 17.5004 9.49999C17.5004 11.3566 16.7628 13.1372 15.45 14.45L10.5 19.4L5.55002 14.45C4.89993 13.8 4.38425 13.0283 4.03242 12.1789C3.6806 11.3296 3.49951 10.4193 3.49951 9.49999C3.49951 8.58068 3.6806 7.67037 4.03242 6.82104C4.38425 5.97172 4.89993 5.20001 5.55002 4.54999V4.54999ZM10.5 11.5C11.0304 11.5 11.5392 11.2893 11.9142 10.9142C12.2893 10.5391 12.5 10.0304 12.5 9.49999C12.5 8.96956 12.2893 8.46085 11.9142 8.08578C11.5392 7.7107 11.0304 7.49999 10.5 7.49999C9.96958 7.49999 9.46088 7.7107 9.0858 8.08578C8.71073 8.46085 8.50002 8.96956 8.50002 9.49999C8.50002 10.0304 8.71073 10.5391 9.0858 10.9142C9.46088 11.2893 9.96958 11.5 10.5 11.5Z" fill="#9CA3AF"/>
</svg>
