<svg width="21" height="21" viewBox="0 0 21 21" fill="none" xmlns="http://www.w3.org/2000/svg">
<path fill-rule="evenodd" clip-rule="evenodd" d="M4.5 4.5C4.5 3.96957 4.71071 3.46086 5.08579 3.08579C5.46086 2.71071 5.96957 2.5 6.5 2.5H14.5C15.0304 2.5 15.5391 2.71071 15.9142 3.08579C16.2893 3.46086 16.5 3.96957 16.5 4.5V16.5C16.7652 16.5 17.0196 16.6054 17.2071 16.7929C17.3946 16.9804 17.5 17.2348 17.5 17.5C17.5 17.7652 17.3946 18.0196 17.2071 18.2071C17.0196 18.3946 16.7652 18.5 16.5 18.5H13.5C13.2348 18.5 12.9804 18.3946 12.7929 18.2071C12.6054 18.0196 12.5 17.7652 12.5 17.5V15.5C12.5 15.2348 12.3946 14.9804 12.2071 14.7929C12.0196 14.6054 11.7652 14.5 11.5 14.5H9.5C9.23478 14.5 8.98043 14.6054 8.79289 14.7929C8.60536 14.9804 8.5 15.2348 8.5 15.5V17.5C8.5 17.7652 8.39464 18.0196 8.20711 18.2071C8.01957 18.3946 7.76522 18.5 7.5 18.5H4.5C4.23478 18.5 3.98043 18.3946 3.79289 18.2071C3.60536 18.0196 3.5 17.7652 3.5 17.5C3.5 17.2348 3.60536 16.9804 3.79289 16.7929C3.98043 16.6054 4.23478 16.5 4.5 16.5V4.5ZM7.5 5.5H9.5V7.5H7.5V5.5ZM9.5 9.5H7.5V11.5H9.5V9.5ZM11.5 5.5H13.5V7.5H11.5V5.5ZM13.5 9.5H11.5V11.5H13.5V9.5Z" fill="#9CA3AF"/>
</svg>
