<svg width="21" height="21" viewBox="0 0 21 21" fill="none" xmlns="http://www.w3.org/2000/svg">
<path d="M2.5 3.5C2.5 3.23478 2.60536 2.98043 2.79289 2.79289C2.98043 2.60536 3.23478 2.5 3.5 2.5H5.653C5.88971 2.50011 6.1187 2.58418 6.29924 2.73726C6.47979 2.89034 6.60018 3.1025 6.639 3.336L7.379 7.771C7.41436 7.98222 7.38097 8.19921 7.28376 8.39003C7.18655 8.58085 7.03065 8.73543 6.839 8.831L5.291 9.604C5.84611 10.9797 6.67283 12.2293 7.72178 13.2782C8.77072 14.3272 10.0203 15.1539 11.396 15.709L12.17 14.161C12.2655 13.9695 12.4199 13.8138 12.6106 13.7166C12.8012 13.6194 13.0179 13.5859 13.229 13.621L17.664 14.361C17.8975 14.3998 18.1097 14.5202 18.2627 14.7008C18.4158 14.8813 18.4999 15.1103 18.5 15.347V17.5C18.5 17.7652 18.3946 18.0196 18.2071 18.2071C18.0196 18.3946 17.7652 18.5 17.5 18.5H15.5C8.32 18.5 2.5 12.68 2.5 5.5V3.5Z" fill="#9CA3AF"/>
</svg>
