<svg width="16" height="17" viewBox="0 0 16 17" fill="none" xmlns="http://www.w3.org/2000/svg">
<path d="M7.70001 7.7C7.70001 7.40826 7.8159 7.12847 8.0222 6.92218C8.22849 6.71589 8.50827 6.6 8.80001 6.6C9.09175 6.6 9.37154 6.71589 9.57783 6.92218C9.78412 7.12847 9.90001 7.40826 9.90001 7.7C9.90001 7.99174 9.78412 8.27153 9.57783 8.47782C9.37154 8.68411 9.09175 8.8 8.80001 8.8C8.50827 8.8 8.22849 8.68411 8.0222 8.47782C7.8159 8.27153 7.70001 7.99174 7.70001 7.7Z" fill="#6B7280" stroke="#6B7280"/>
<path fill-rule="evenodd" clip-rule="evenodd" d="M7.99998 14.9C9.69736 14.9 11.3252 14.2257 12.5255 13.0255C13.7257 11.8252 14.4 10.1974 14.4 8.5C14.4 6.80261 13.7257 5.17475 12.5255 3.97452C11.3252 2.77428 9.69736 2.1 7.99998 2.1C6.30259 2.1 4.67472 2.77428 3.47449 3.97452C2.27426 5.17475 1.59998 6.80261 1.59998 8.5C1.59998 10.1974 2.27426 11.8252 3.47449 13.0255C4.67472 14.2257 6.30259 14.9 7.99998 14.9V14.9ZM8.79998 4.5C8.23571 4.49992 7.68145 4.64904 7.1934 4.93226C6.70535 5.21547 6.30087 5.6227 6.02097 6.11265C5.74107 6.6026 5.59569 7.15786 5.59959 7.72211C5.60349 8.28637 5.75653 8.83956 6.04318 9.3256L4.23438 11.1336C4.08426 11.2836 3.99989 11.4871 3.99981 11.6993C3.99978 11.8044 4.02044 11.9085 4.06061 12.0055C4.10079 12.1026 4.1597 12.1909 4.23398 12.2652C4.30825 12.3395 4.39644 12.3985 4.49351 12.4387C4.59057 12.479 4.69461 12.4997 4.79969 12.4998C5.01191 12.4998 5.21546 12.4156 5.36558 12.2656L7.17438 10.4568C7.59825 10.7066 8.07403 10.8553 8.56473 10.8914C9.05542 10.9274 9.54783 10.8499 10.0037 10.6647C10.4595 10.4795 10.8665 10.1917 11.193 9.82359C11.5195 9.45553 11.7568 9.01713 11.8863 8.54246C12.0158 8.0678 12.0342 7.56966 11.9399 7.08676C11.8456 6.60386 11.6412 6.1492 11.3427 5.75813C11.0441 5.36706 10.6593 5.0501 10.2184 4.8319C9.77736 4.61369 9.292 4.50012 8.79998 4.5V4.5Z" fill="#6B7280"/>
</svg>
