<svg width="25" height="25" viewBox="0 0 25 25" fill="none" xmlns="http://www.w3.org/2000/svg">
<path d="M14.2448 4.49687C13.801 2.66771 11.199 2.66771 10.7552 4.49687C10.4677 5.67917 9.11354 6.23958 8.07604 5.60625C6.46771 4.62708 4.62812 6.46771 5.60729 8.075C5.75448 8.31641 5.84259 8.58916 5.86445 8.87106C5.8863 9.15295 5.84129 9.43603 5.73307 9.69724C5.62485 9.95845 5.45648 10.1904 5.24167 10.3743C5.02685 10.5581 4.77167 10.6886 4.49687 10.7552C2.66771 11.199 2.66771 13.801 4.49687 14.2448C4.77142 14.3116 5.02634 14.4422 5.24091 14.626C5.45548 14.8098 5.62365 15.0417 5.73174 15.3027C5.83984 15.5638 5.88481 15.8467 5.863 16.1284C5.8412 16.4101 5.75323 16.6826 5.60625 16.924C4.62708 18.5323 6.46771 20.3719 8.075 19.3927C8.31641 19.2455 8.58916 19.1574 8.87106 19.1356C9.15295 19.1137 9.43603 19.1587 9.69724 19.2669C9.95845 19.3752 10.1904 19.5435 10.3743 19.7583C10.5581 19.9731 10.6886 20.2283 10.7552 20.5031C11.199 22.3323 13.801 22.3323 14.2448 20.5031C14.3116 20.2286 14.4422 19.9737 14.626 19.7591C14.8098 19.5445 15.0417 19.3764 15.3027 19.2683C15.5638 19.1602 15.8467 19.1152 16.1284 19.137C16.4101 19.1588 16.6826 19.2468 16.924 19.3937C18.5323 20.3729 20.3719 18.5323 19.3927 16.925C19.2455 16.6836 19.1574 16.4108 19.1356 16.1289C19.1137 15.847 19.1587 15.564 19.2669 15.3028C19.3752 15.0416 19.5435 14.8096 19.7583 14.6257C19.9731 14.4419 20.2283 14.3114 20.5031 14.2448C22.3323 13.801 22.3323 11.199 20.5031 10.7552C20.2286 10.6884 19.9737 10.5578 19.7591 10.374C19.5445 10.1902 19.3764 9.95832 19.2683 9.69727C19.1602 9.43622 19.1152 9.15334 19.137 8.87164C19.1588 8.58993 19.2468 8.31735 19.3937 8.07604C20.3729 6.46771 18.5323 4.62812 16.925 5.60729C16.6836 5.75448 16.4108 5.84259 16.1289 5.86445C15.847 5.8863 15.564 5.84129 15.3028 5.73307C15.0416 5.62485 14.8096 5.45648 14.6257 5.24167C14.4419 5.02685 14.3114 4.77167 14.2448 4.49687Z" stroke="#6B7280" stroke-width="2" stroke-linecap="round" stroke-linejoin="round"/>
<path d="M14.7097 14.7097C15.2958 14.1237 15.625 13.3288 15.625 12.5C15.625 11.6712 15.2958 10.8763 14.7097 10.2903C14.1237 9.70424 13.3288 9.375 12.5 9.375C11.6712 9.375 10.8763 9.70424 10.2903 10.2903C9.70424 10.8763 9.375 11.6712 9.375 12.5C9.375 13.3288 9.70424 14.1237 10.2903 14.7097C10.8763 15.2958 11.6712 15.625 12.5 15.625C13.3288 15.625 14.1237 15.2958 14.7097 14.7097Z" stroke="#6B7280" stroke-width="2" stroke-linecap="round" stroke-linejoin="round"/>
</svg>
