<svg width="23" height="22" viewBox="0 0 23 22" fill="none" xmlns="http://www.w3.org/2000/svg">
<path d="M20.2149 12.1579C20.2655 11.7781 20.3 11.3931 20.3 11C20.3 6.1402 16.3598 2.2 11.5 2.2C11.1069 2.2 10.7219 2.23447 10.3421 2.28507C9.50461 1.76953 8.52194 1.46667 7.46667 1.46667C4.42921 1.46667 1.96667 3.9292 1.96667 6.96667C1.96667 8.02193 2.26954 9.0046 2.78507 9.84207C2.73447 10.2219 2.70001 10.6069 2.70001 11C2.70001 15.8598 6.64021 19.8 11.5 19.8C11.8931 19.8 12.2781 19.7655 12.6579 19.7149C13.4954 20.2305 14.4781 20.5333 15.5333 20.5333C18.5708 20.5333 21.0333 18.0708 21.0333 15.0333C21.0333 13.9781 20.7305 12.9954 20.2149 12.1579ZM11.6093 16.1333C8.75221 16.1333 7.11174 14.6359 7.11174 13.1663C7.11174 12.4168 7.89641 12.177 8.21027 12.177C8.93554 12.177 9.17681 12.7688 9.30881 13.0401C10.0458 14.5552 10.7542 14.3557 11.4523 14.4217C12.0691 14.4797 13.5167 14.2076 13.5167 13.1501C13.5167 13.0489 13.6758 12.3611 12.4262 12.0201C11.6276 11.8015 10.2196 11.5339 9.06094 11.088C7.97121 10.6685 7.33174 9.80467 7.33174 8.69147C7.33174 8.13487 7.61701 5.86667 11.4758 5.86667C14.0513 5.86667 15.4241 7.18593 15.4241 8.3468C15.4241 8.61373 15.3221 8.84913 15.1175 9.06107C14.9129 9.273 14.3365 9.5832 13.7051 9.17913C13.546 9.0772 13.4147 8.86527 13.2578 8.59027C13.0686 8.24487 12.7591 7.57753 11.3343 7.57753C9.95194 7.57753 9.56841 8.2368 9.56841 8.5118C9.56841 9.4358 11.3321 9.63013 11.8058 9.7526C13.535 10.1985 15.8875 10.6084 15.8875 12.9397C15.8875 15.6163 13.1023 16.1333 11.6093 16.1333Z" fill="#D9D9D9"/>
</svg>
