<svg width="21" height="20" viewBox="0 0 21 20" fill="none" xmlns="http://www.w3.org/2000/svg">
<g clip-path="url(#clip0_28_4032)">
<path d="M6.7918 18.125C14.3371 18.125 18.4652 11.8723 18.4652 6.45159C18.4652 6.27581 18.4613 6.09612 18.4535 5.92034C19.2566 5.33959 19.9496 4.62025 20.5 3.79612C19.7521 4.12887 18.958 4.34619 18.1449 4.44065C19.0011 3.92746 19.6421 3.12126 19.9492 2.17151C19.1438 2.64884 18.263 2.98555 17.3445 3.16721C16.7257 2.50967 15.9075 2.0743 15.0164 1.92841C14.1253 1.78253 13.211 1.93425 12.4148 2.36012C11.6186 2.78599 10.9848 3.46229 10.6115 4.28446C10.2382 5.10664 10.1462 6.02888 10.3496 6.90862C8.71874 6.82678 7.12328 6.40312 5.66665 5.66512C4.21002 4.92712 2.92474 3.89124 1.89414 2.62464C1.37033 3.52774 1.21005 4.59641 1.44586 5.61345C1.68167 6.63049 2.29589 7.51958 3.16367 8.10003C2.51219 8.07934 1.87498 7.90394 1.30469 7.58831V7.63909C1.3041 8.58683 1.63175 9.50553 2.23192 10.239C2.8321 10.9725 3.66777 11.4755 4.59687 11.6625C3.99338 11.8276 3.35999 11.8517 2.7457 11.7328C3.00788 12.5479 3.51798 13.2608 4.20481 13.772C4.89164 14.2832 5.72093 14.5672 6.57695 14.5844C5.12369 15.726 3.32848 16.3451 1.48047 16.3422C1.15274 16.3417 0.825333 16.3216 0.5 16.2821C2.37738 17.4865 4.56128 18.1262 6.7918 18.125Z" fill="#D9D9D9"/>
</g>
<defs>
<clipPath id="clip0_28_4032">
<rect width="20" height="20" fill="white" transform="translate(0.5)"/>
</clipPath>
</defs>
</svg>
