<svg width="21" height="21" viewBox="0 0 21 21" fill="none" xmlns="http://www.w3.org/2000/svg">
<path fill-rule="evenodd" clip-rule="evenodd" d="M10.5 9.5C11.2956 9.5 12.0587 9.18393 12.6213 8.62132C13.1839 8.05871 13.5 7.29565 13.5 6.5C13.5 5.70435 13.1839 4.94129 12.6213 4.37868C12.0587 3.81607 11.2956 3.5 10.5 3.5C9.70435 3.5 8.94129 3.81607 8.37868 4.37868C7.81607 4.94129 7.5 5.70435 7.5 6.5C7.5 7.29565 7.81607 8.05871 8.37868 8.62132C8.94129 9.18393 9.70435 9.5 10.5 9.5V9.5ZM3.5 18.5C3.5 17.5807 3.68106 16.6705 4.03284 15.8212C4.38463 14.9719 4.90024 14.2003 5.55025 13.5503C6.20026 12.9002 6.97194 12.3846 7.82122 12.0328C8.6705 11.6811 9.58075 11.5 10.5 11.5C11.4193 11.5 12.3295 11.6811 13.1788 12.0328C14.0281 12.3846 14.7997 12.9002 15.4497 13.5503C16.0998 14.2003 16.6154 14.9719 16.9672 15.8212C17.3189 16.6705 17.5 17.5807 17.5 18.5H3.5Z" fill="#9CA3AF"/>
</svg>
