<svg width="17" height="16" viewBox="0 0 17 16" fill="none" xmlns="http://www.w3.org/2000/svg">
<path fill-rule="evenodd" clip-rule="evenodd" d="M8.50002 7.2C9.13654 7.2 9.74699 6.94715 10.1971 6.49706C10.6472 6.04697 10.9 5.43652 10.9 4.8C10.9 4.16348 10.6472 3.55303 10.1971 3.10295C9.74699 2.65286 9.13654 2.4 8.50002 2.4C7.86351 2.4 7.25306 2.65286 6.80297 3.10295C6.35288 3.55303 6.10002 4.16348 6.10002 4.8C6.10002 5.43652 6.35288 6.04697 6.80297 6.49706C7.25306 6.94715 7.86351 7.2 8.50002 7.2V7.2ZM2.90002 14.4C2.90002 13.6646 3.04487 12.9364 3.3263 12.257C3.60773 11.5776 4.02022 10.9602 4.54023 10.4402C5.06023 9.9202 5.67757 9.5077 6.357 9.22628C7.03642 8.94485 7.76462 8.8 8.50002 8.8C9.23543 8.8 9.96363 8.94485 10.6431 9.22628C11.3225 9.5077 11.9398 9.9202 12.4598 10.4402C12.9798 10.9602 13.3923 11.5776 13.6738 12.257C13.9552 12.9364 14.1 13.6646 14.1 14.4H2.90002Z" fill="#6C2BD9"/>
</svg>
