<svg width="21" height="20" viewBox="0 0 21 20" fill="none" xmlns="http://www.w3.org/2000/svg">
<g clip-path="url(#clip0_28_4034)">
<path d="M20.3008 6.00004C20.3008 6.00004 20.1055 4.62113 19.5039 4.01566C18.7422 3.21879 17.8906 3.21488 17.5 3.16801C14.7031 2.96488 10.5039 2.96488 10.5039 2.96488H10.4961C10.4961 2.96488 6.29687 2.96488 3.5 3.16801C3.10938 3.21488 2.25781 3.21879 1.49609 4.01566C0.894531 4.62113 0.703125 6.00004 0.703125 6.00004C0.703125 6.00004 0.5 7.62113 0.5 9.23832V10.7539C0.5 12.3711 0.699219 13.9922 0.699219 13.9922C0.699219 13.9922 0.894531 15.3711 1.49219 15.9766C2.25391 16.7735 3.25391 16.7461 3.69922 16.8321C5.30078 16.9844 10.5 17.0313 10.5 17.0313C10.5 17.0313 14.7031 17.0235 17.5 16.8243C17.8906 16.7774 18.7422 16.7735 19.5039 15.9766C20.1055 15.3711 20.3008 13.9922 20.3008 13.9922C20.3008 13.9922 20.5 12.375 20.5 10.7539V9.23832C20.5 7.62113 20.3008 6.00004 20.3008 6.00004ZM8.43359 12.5938V6.97269L13.8359 9.79301L8.43359 12.5938Z" fill="#D9D9D9"/>
</g>
<defs>
<clipPath id="clip0_28_4034">
<rect width="20" height="20" fill="white" transform="translate(0.5)"/>
</clipPath>
</defs>
</svg>
